<svg width="35" height="35" viewBox="0 0 35 35" fill="none" xmlns="http://www.w3.org/2000/svg">
<path d="M2.70017 34.6992C1.53806 34.4189 0.540017 33.4141 0.273415 32.2656C0.0820089 31.4453 0.225564 30.4814 0.642556 29.7773C0.738259 29.6201 3.50681 26.8037 6.7949 23.5156L12.7832 17.5342L6.71287 11.4502C0.177712 4.90135 0.355446 5.0996 0.102517 4.13573C-0.0957255 3.3496 0.0136495 2.53612 0.423806 1.76366C1.06638 0.553698 2.57713 -0.0341923 4.17674 0.300769C5.13377 0.505847 4.88084 0.280261 11.3818 6.7744C14.6904 10.0762 17.4316 12.7832 17.4658 12.7832C17.5 12.7832 20.2412 10.083 23.5498 6.7744C29.1279 1.20311 29.5996 0.751941 30.0097 0.560534C31.4248 -0.0957158 33.1338 0.170886 34.1113 1.20311C35.0342 2.17382 35.2461 3.66405 34.6445 4.91503C34.4463 5.33202 33.9678 5.82421 28.3076 11.4639L22.1826 17.5547L28.1367 23.5293C31.8486 27.248 34.1592 29.6133 34.2685 29.8047C34.5693 30.3379 34.6787 30.8437 34.6445 31.5752C34.6035 32.3613 34.4394 32.8398 34.0088 33.4141C33.1679 34.5283 31.6435 35 30.3174 34.5488C29.5586 34.2959 29.2168 33.9746 23.2832 28.0342L17.4726 22.2236L11.4912 28.1846C5.05857 34.583 5.2158 34.4463 4.27244 34.6924C3.80076 34.8154 3.17869 34.8154 2.70017 34.6992Z" fill="#5E4D46"/>
</svg>
