<svg width="172" height="46" viewBox="0 0 172 46" fill="none" xmlns="http://www.w3.org/2000/svg">
<path d="M9.82468 7.49732C4.88008 9.58157 0.737302 11.356 0.603664 11.4405C-0.0793737 11.8911 -0.213012 13.0929 0.358662 13.6937C0.514572 13.8627 3.14278 15.0081 9.72816 17.7871C14.7619 19.9089 18.9492 21.6458 19.0308 21.6458C19.2833 21.6458 37.2353 14.0411 37.4951 13.8252C37.7773 13.5811 38 13.0835 38 12.6798C38 12.2761 37.7773 11.7785 37.4951 11.5344C37.213 11.2997 19.2684 3.71374 18.9937 3.71374C18.8898 3.71374 14.7693 5.42245 9.82468 7.49732Z" fill="#070034"/>
<path d="M34.4215 18.1533L33.3969 18.5851V25.5984V32.6022L33.0851 32.7806C32.1868 33.2876 31.4592 34.3297 31.1696 35.5126C31.0286 36.0853 31.0211 36.3858 31.0211 40.4134C31.0211 45.2955 31.0063 45.164 31.6151 45.5584C31.9343 45.7743 31.9937 45.7743 34.5031 45.7743C36.9383 45.7743 37.0794 45.7649 37.3764 45.5771C37.6065 45.4363 37.7327 45.2767 37.8441 44.9857C37.9926 44.6007 38 44.4317 38 40.4886C38 37.8128 37.9703 36.2262 37.9183 35.8976C37.7179 34.6958 36.968 33.4566 36.0994 32.8932L35.6242 32.5834V25.1383C35.6242 19.2517 35.6019 17.7026 35.5351 17.712C35.4832 17.712 34.9783 17.9186 34.4215 18.1533Z" fill="#070034"/>
<path d="M7.11479 24.4342C7.11479 27.063 7.15191 29.3725 7.18904 29.5697C7.34495 30.4522 9.60937 32.7618 11.5323 34.0105C15.4672 36.5641 19.9737 36.9866 24.265 35.1934C25.2524 34.7803 26.9155 33.757 27.8287 33.0059C29.3729 31.7197 30.687 30.2081 30.7984 29.5697C30.8578 29.2599 30.9098 19.6742 30.8504 19.6742C30.8429 19.6742 28.3261 20.7351 25.2673 22.0307L19.699 24.3966H18.9937H18.2884L12.7202 22.0307C9.66134 20.7351 7.14449 19.6742 7.13706 19.6742C7.12222 19.6742 7.11479 21.8148 7.11479 24.4342Z" fill="#070034"/>
<path d="M47.808 16V6.32L48.4 6.912H44.24V4.8H53.952V6.912H49.792L50.368 6.32V16H47.808ZM61.0035 8.48C62.3582 8.48 63.4035 8.784 64.1395 9.392C64.8755 9.98933 65.2435 10.8907 65.2435 12.096C65.2435 13.376 64.8328 14.3467 64.0115 15.008C63.2008 15.6693 62.0755 16 60.6355 16H55.5795V4.8H58.1555V8.48H61.0035ZM60.4915 14.08C61.1528 14.08 61.6755 13.9147 62.0595 13.584C62.4435 13.2533 62.6355 12.7733 62.6355 12.144C62.6355 11.5253 62.4435 11.0827 62.0595 10.816C61.6862 10.5387 61.1635 10.4 60.4915 10.4H58.1555V14.08H60.4915ZM67.1108 16V4.8H69.6868V9.2H72.5828V11.44H69.6868V16H67.1108ZM76.9988 16.192C76.1454 16.192 75.3561 16.048 74.6308 15.76C73.9161 15.472 73.2921 15.072 72.7588 14.56C72.2254 14.0373 71.8094 13.424 71.5108 12.72C71.2228 12.0053 71.0788 11.232 71.0788 10.4C71.0788 9.55733 71.2228 8.784 71.5108 8.08C71.8094 7.376 72.2254 6.768 72.7588 6.256C73.2921 5.73333 73.9161 5.328 74.6308 5.04C75.3561 4.752 76.1454 4.608 76.9988 4.608C77.8414 4.608 78.6254 4.752 79.3508 5.04C80.0761 5.328 80.7001 5.73333 81.2228 6.256C81.7561 6.768 82.1721 7.38133 82.4708 8.096C82.7694 8.8 82.9188 9.568 82.9188 10.4C82.9188 11.232 82.7694 12.0053 82.4708 12.72C82.1721 13.424 81.7561 14.0373 81.2228 14.56C80.7001 15.072 80.0761 15.472 79.3508 15.76C78.6254 16.048 77.8414 16.192 76.9988 16.192ZM76.9988 13.984C77.4681 13.984 77.9001 13.8987 78.2948 13.728C78.6894 13.5573 79.0361 13.3173 79.3348 13.008C79.6334 12.688 79.8681 12.3093 80.0388 11.872C80.2094 11.4347 80.2948 10.944 80.2948 10.4C80.2948 9.856 80.2094 9.36533 80.0388 8.928C79.8681 8.49067 79.6334 8.11733 79.3348 7.808C79.0361 7.488 78.6894 7.24267 78.2948 7.072C77.9001 6.90133 77.4681 6.816 76.9988 6.816C76.5401 6.816 76.1081 6.90133 75.7028 7.072C75.3081 7.24267 74.9614 7.488 74.6628 7.808C74.3641 8.11733 74.1294 8.49067 73.9588 8.928C73.7881 9.36533 73.7028 9.856 73.7028 10.4C73.7028 10.944 73.7881 11.4347 73.9588 11.872C74.1294 12.3093 74.3641 12.688 74.6628 13.008C74.9614 13.3173 75.3081 13.5573 75.7028 13.728C76.1081 13.8987 76.5401 13.984 76.9988 13.984ZM87.1986 16V6.32L87.7906 6.912H83.6306V4.8H93.3426V6.912H89.1826L89.7586 6.32V16H87.1986ZM100.174 16.192C99.2885 16.192 98.4672 16.048 97.7099 15.76C96.9632 15.472 96.3125 15.0667 95.7579 14.544C95.2139 14.0213 94.7872 13.408 94.4779 12.704C94.1792 12 94.0299 11.232 94.0299 10.4C94.0299 9.568 94.1792 8.8 94.4779 8.096C94.7872 7.392 95.2192 6.77867 95.7739 6.256C96.3285 5.73333 96.9792 5.328 97.7259 5.04C98.4725 4.752 99.2832 4.608 100.158 4.608C101.043 4.608 101.854 4.752 102.59 5.04C103.337 5.328 103.982 5.73333 104.526 6.256C105.081 6.77867 105.513 7.392 105.822 8.096C106.131 8.78933 106.286 9.55733 106.286 10.4C106.286 11.232 106.131 12.0053 105.822 12.72C105.513 13.424 105.081 14.0373 104.526 14.56C103.982 15.072 103.337 15.472 102.59 15.76C101.854 16.048 101.049 16.192 100.174 16.192ZM100.158 13.984C100.659 13.984 101.118 13.8987 101.534 13.728C101.961 13.5573 102.334 13.312 102.654 12.992C102.974 12.672 103.219 12.2933 103.39 11.856C103.571 11.4187 103.662 10.9333 103.662 10.4C103.662 9.86667 103.571 9.38133 103.39 8.944C103.219 8.50667 102.974 8.128 102.654 7.808C102.345 7.488 101.977 7.24267 101.55 7.072C101.123 6.90133 100.659 6.816 100.158 6.816C99.6565 6.816 99.1925 6.90133 98.7659 7.072C98.3499 7.24267 97.9819 7.488 97.6619 7.808C97.3419 8.128 97.0912 8.50667 96.9099 8.944C96.7392 9.38133 96.6539 9.86667 96.6539 10.4C96.6539 10.9227 96.7392 11.408 96.9099 11.856C97.0912 12.2933 97.3365 12.672 97.6459 12.992C97.9659 13.312 98.3392 13.5573 98.7659 13.728C99.1925 13.8987 99.6565 13.984 100.158 13.984ZM108.283 16V4.8H113.131C114.133 4.8 114.997 4.96533 115.723 5.296C116.448 5.616 117.008 6.08 117.403 6.688C117.797 7.296 117.995 8.02133 117.995 8.864C117.995 9.696 117.797 10.416 117.403 11.024C117.008 11.632 116.448 12.1013 115.723 12.432C114.997 12.752 114.133 12.912 113.131 12.912H109.723L110.875 11.744V16H108.283ZM110.875 12.032L109.723 10.8H112.987C113.787 10.8 114.384 10.6293 114.779 10.288C115.173 9.94667 115.371 9.472 115.371 8.864C115.371 8.24533 115.173 7.76533 114.779 7.424C114.384 7.08267 113.787 6.912 112.987 6.912H109.723L110.875 5.68V12.032ZM125.157 16.192C124.293 16.192 123.487 16.0533 122.741 15.776C122.005 15.488 121.365 15.0827 120.821 14.56C120.277 14.0373 119.85 13.424 119.541 12.72C119.242 12.016 119.093 11.2427 119.093 10.4C119.093 9.55733 119.242 8.784 119.541 8.08C119.85 7.376 120.277 6.76267 120.821 6.24C121.375 5.71733 122.021 5.31733 122.757 5.04C123.493 4.752 124.298 4.608 125.173 4.608C126.143 4.608 127.018 4.77867 127.797 5.12C128.586 5.45067 129.247 5.94133 129.781 6.592L128.117 8.128C127.733 7.69067 127.306 7.36533 126.837 7.152C126.367 6.928 125.855 6.816 125.301 6.816C124.778 6.816 124.298 6.90133 123.861 7.072C123.423 7.24267 123.045 7.488 122.725 7.808C122.405 8.128 122.154 8.50667 121.973 8.944C121.802 9.38133 121.717 9.86667 121.717 10.4C121.717 10.9333 121.802 11.4187 121.973 11.856C122.154 12.2933 122.405 12.672 122.725 12.992C123.045 13.312 123.423 13.5573 123.861 13.728C124.298 13.8987 124.778 13.984 125.301 13.984C125.855 13.984 126.367 13.8773 126.837 13.664C127.306 13.44 127.733 13.104 128.117 12.656L129.781 14.192C129.247 14.8427 128.586 15.3387 127.797 15.68C127.018 16.0213 126.138 16.192 125.157 16.192ZM138.718 16L135.23 10.608L137.326 9.344L141.662 16H138.718ZM131.438 16V4.8H134.014V16H131.438ZM133.262 11.488V9.328H137.166V11.488H133.262ZM137.566 10.688L135.182 10.4L138.814 4.8H141.55L137.566 10.688ZM142.876 16V4.8H145.452V12.096L150.796 4.8H153.228V16H150.668V8.72L145.324 16H142.876ZM156.017 16V4.8H158.593V12.096L163.937 4.8H166.369V16H163.809V8.72L158.465 16H156.017ZM161.185 4.08C160.118 4.08 159.334 3.86667 158.833 3.44C158.342 3.01333 158.092 2.41067 158.081 1.632H159.857C159.868 2.016 159.98 2.30933 160.193 2.512C160.417 2.704 160.748 2.8 161.185 2.8C161.612 2.8 161.937 2.704 162.161 2.512C162.385 2.30933 162.502 2.016 162.513 1.632H164.289C164.278 2.41067 164.022 3.01333 163.521 3.44C163.02 3.86667 162.241 4.08 161.185 4.08ZM45.392 36V24.8H47.968V33.888H52.96V24.8H55.536V36H45.392ZM54.752 38.368V35.392L55.312 36H52.96V33.888H57.136V38.368H54.752ZM61.2291 29.312H66.6211V31.328H61.2291V29.312ZM61.4211 33.92H67.5171V36H58.8451V24.8H67.3091V26.88H61.4211V33.92ZM77.2908 24.8H79.8828V36H77.2908V24.8ZM72.2028 36H69.6108V24.8H72.2028V36ZM77.4828 31.408H72.0108V29.216H77.4828V31.408ZM85.1049 36V26.32L85.6969 26.912H81.5369V24.8H91.2489V26.912H87.0889L87.6649 26.32V36H85.1049ZM92.8764 36V24.8H97.7244C98.727 24.8 99.591 24.9653 100.316 25.296C101.042 25.616 101.602 26.08 101.996 26.688C102.391 27.296 102.588 28.0213 102.588 28.864C102.588 29.696 102.391 30.416 101.996 31.024C101.602 31.632 101.042 32.1013 100.316 32.432C99.591 32.752 98.727 32.912 97.7244 32.912H94.3164L95.4684 31.744V36H92.8764ZM95.4684 32.032L94.3164 30.8H97.5804C98.3804 30.8 98.9777 30.6293 99.3724 30.288C99.767 29.9467 99.9644 29.472 99.9644 28.864C99.9644 28.2453 99.767 27.7653 99.3724 27.424C98.9777 27.0827 98.3804 26.912 97.5804 26.912H94.3164L95.4684 25.68V32.032Z" fill="#070034"/>
</svg>
