<svg width="60" height="60" viewBox="0 0 60 60" fill="none" xmlns="http://www.w3.org/2000/svg">
<g clip-path="url(#clip0_215_55)">
<path d="M15.3027 5.49805C13.6816 5.83008 12.0605 7.10938 11.3477 8.63281C10.4883 10.4688 10.5957 12.3828 11.6602 14.082C11.8848 14.4531 12.002 14.7266 11.9434 14.7461C11.6895 14.834 10.8008 15.5664 10.459 15.9863C10.2539 16.2305 9.9707 16.6699 9.83398 16.9531C9.33594 17.959 9.29688 18.3008 9.29688 21.4062C9.29688 24.2285 9.30664 24.2969 9.53125 24.7754C9.77539 25.3027 10.2148 25.7324 10.7617 25.9863C11.0645 26.123 11.7578 26.1426 16.4258 26.1426C21.7383 26.1426 21.748 26.1426 22.1875 25.9277L22.6367 25.7031L23.0664 25.9277C23.5059 26.1426 23.5156 26.1426 28.8281 26.1426C34.1016 26.1426 34.1504 26.1426 34.5703 25.9277L34.9902 25.7129L35.4492 25.9277C35.8984 26.1328 36.0254 26.1426 40.5957 26.1719C43.1738 26.1914 45.5957 26.1816 45.9863 26.1426C46.9043 26.0547 47.5879 25.6641 48.0176 24.9805L48.3105 24.502L48.3398 21.582C48.3691 18.3887 48.3301 18.0273 47.8027 16.9336C47.4902 16.3086 46.5723 15.2734 46.0352 14.9512C45.8301 14.8242 45.6641 14.7168 45.6445 14.707C45.625 14.6973 45.791 14.3848 46.0156 14.0137C47.4023 11.7188 47.0801 9.00391 45.1953 7.09961C43.75 5.63477 41.7871 5.07812 39.8145 5.58594C37.8125 6.10352 36.2305 7.67578 35.7129 9.6875C35.5859 10.166 35.5566 10.5762 35.5957 11.3477C35.6445 12.4902 35.8496 13.1738 36.4062 14.0625C36.5918 14.3457 36.7383 14.6094 36.7383 14.6484C36.7383 14.6875 36.5137 14.8633 36.2402 15.0488C35.9668 15.2344 35.5762 15.5762 35.3711 15.8105L34.9902 16.2402L34.7656 15.9375C34.5508 15.6445 33.5547 14.8242 33.3105 14.7461C33.2422 14.7266 33.3301 14.502 33.5547 14.1602C34.6387 12.5391 34.7656 10.3613 33.8867 8.55469C33.4473 7.62695 32.2559 6.42578 31.3477 5.99609C29.1406 4.92188 26.5527 5.35156 24.834 7.06055C23.8281 8.06641 23.2812 9.26758 23.1934 10.7129C23.1152 12.0117 23.418 13.1836 24.1113 14.1992C24.2969 14.4922 24.4043 14.7266 24.3457 14.7461C24.0918 14.834 23.0762 15.6543 22.8711 15.9375L22.6465 16.25L22.2754 15.8105C22.0703 15.5664 21.6504 15.2148 21.3574 15.0098L20.8203 14.6582L21.0547 14.3457C21.4355 13.8379 21.7871 13.0566 21.9531 12.3535C22.1582 11.4746 22.0898 10.0586 21.7969 9.22852C21.2207 7.58789 19.7949 6.17188 18.1934 5.67383C17.4414 5.43945 16.0156 5.35156 15.3027 5.49805ZM17.3438 7.49023C18.4473 7.7832 19.3359 8.52539 19.8242 9.57031C20.0488 10.0488 20.0879 10.2637 20.0879 11.0547C20.0879 11.8555 20.0488 12.0605 19.8242 12.5391C19.0137 14.2676 17.1484 15.127 15.3906 14.5898C13.2227 13.916 12.1484 11.5527 13.0957 9.53125C13.4668 8.75 13.9453 8.22266 14.6484 7.85156C15.6152 7.33398 16.3672 7.23633 17.3438 7.49023ZM29.5898 7.44141C31.5137 7.89062 32.8125 9.78516 32.4609 11.6504C32.2363 12.8809 31.4941 13.8672 30.4102 14.3945C29.8145 14.6875 29.6777 14.7168 28.8281 14.7168C28.0273 14.7168 27.8223 14.6777 27.3438 14.4531C26.5625 14.0918 25.8594 13.4082 25.4785 12.627C25.1953 12.041 25.166 11.9141 25.1758 11.0547C25.1758 10.2734 25.2148 10.0391 25.4297 9.58008C26.1621 7.97852 27.9395 7.07031 29.5898 7.44141ZM42.7441 7.72461C44.2578 8.42773 45.127 10.0684 44.8438 11.6602C44.1992 15.2148 39.5605 15.8887 37.8711 12.666C37.5879 12.1191 37.5684 12.0117 37.5684 11.1035C37.5684 10.2539 37.5977 10.0586 37.832 9.57031C38.7207 7.66602 40.8887 6.8457 42.7441 7.72461ZM14.5117 16.3867C15.7715 16.8555 17.2949 16.8164 18.6816 16.2793C19.1211 16.1035 19.1211 16.1035 19.7168 16.3672C20.4395 16.6992 21.0254 17.2754 21.3574 17.998L21.6016 18.5449L21.582 21.3184L21.5527 24.0918L16.5332 24.1211C12.793 24.1406 11.4844 24.1113 11.377 24.0234C11.2598 23.9355 11.2402 23.4473 11.2695 21.1719C11.2988 18.0957 11.3281 17.9492 12.0801 17.1289C12.3926 16.7773 13.457 16.1328 13.7207 16.1328C13.7695 16.1328 14.1309 16.25 14.5117 16.3867ZM27.0215 16.4355C27.5098 16.6211 27.793 16.6602 28.7793 16.6699C29.8242 16.6699 30.0391 16.6406 30.7422 16.3867L31.543 16.1035L32.0703 16.3574C32.8027 16.6895 33.3594 17.207 33.6816 17.8711L33.9551 18.4277L33.9844 21.1719C34.0137 23.4473 33.9941 23.9355 33.877 24.0234C33.7695 24.1113 32.4609 24.1406 28.7207 24.1211L23.7012 24.0918V21.2109V18.3301L23.9648 17.8418C24.2969 17.207 24.8438 16.6895 25.5078 16.377C26.0938 16.1035 26.1621 16.1035 27.0215 16.4355ZM39.4238 16.4453C39.9219 16.6309 40.1855 16.6602 41.2305 16.6602C42.3242 16.6602 42.5195 16.6309 43.125 16.3965C43.7012 16.1719 43.8477 16.1426 44.1602 16.2305C45.0879 16.4746 45.957 17.3828 46.2598 18.4082C46.4551 19.0527 46.4746 23.8379 46.2891 24.0234C46.2012 24.1113 44.9316 24.1406 41.1621 24.1406C36.2012 24.1406 36.1621 24.1406 36.0547 23.9355C35.9766 23.7988 35.957 22.9297 35.9766 21.1816C36.0254 18.1152 36.0645 17.9688 36.9727 17.0508C37.5781 16.4551 38.2422 16.1035 38.6426 16.1816C38.75 16.2012 39.1016 16.3184 39.4238 16.4453Z" fill="#0968AD"/>
<path d="M49.4629 27.4511C48.7402 27.7148 48.252 28.0859 47.0898 29.2675C46.5234 29.8437 45.2441 31.1035 44.2383 32.0703L42.4023 33.8281L41.9141 33.2812C41.6113 32.9589 41.1914 32.6367 40.8594 32.4707L40.3027 32.1972L35.0781 32.1386C29.5313 32.0605 29.2285 32.041 27.0703 31.5234C25.5957 31.1621 24.3359 31.0449 23.1934 31.1621C20.3223 31.455 17.6953 32.9101 15.6738 35.3222C15.2637 35.8007 14.8926 36.2109 14.8535 36.2304C14.8145 36.25 14.4336 35.9375 14.0137 35.5273C13.1934 34.746 12.8711 34.5996 12.4316 34.7851C12.1289 34.9023 5.23438 42.0117 5.07813 42.3632C4.80469 42.9589 4.76563 42.9199 10.625 48.5058C13.6621 51.4062 16.3672 53.9648 16.6406 54.1894C17.2852 54.746 17.6367 54.7558 18.1934 54.248C18.418 54.0429 20.0684 52.373 21.8555 50.5371L25.1172 47.1972V46.7578C25.1172 46.3769 25.0684 46.2597 24.7266 45.9082C24.5117 45.6835 24.3457 45.4882 24.3555 45.4785C24.375 45.4687 24.8438 45.4003 25.4102 45.332C26.123 45.2441 28.7598 45.1855 34.1504 45.1367C41.1426 45.0781 41.9238 45.0585 42.5 44.9023C43.3887 44.6582 44.6094 44.0625 45.1856 43.6035C45.7031 43.1933 54.0918 33.3886 54.4727 32.7636C55.6641 30.7519 54.668 28.3398 52.2852 27.5C51.4453 27.207 50.2148 27.1875 49.4629 27.4511ZM51.6016 29.3359C52.1484 29.4921 52.8223 30.1269 52.959 30.5957C53.1836 31.3281 53.125 31.4062 48.8867 36.4062C46.6992 38.9843 44.668 41.3378 44.3652 41.6503C43.7793 42.2656 43.0762 42.6757 42.1484 42.9492C41.6309 43.1054 40.8301 43.125 33.9551 43.1835C26.7871 43.2324 26.2207 43.2519 24.4043 43.4668L22.4707 43.7011L21.7188 42.9785C21.3086 42.5781 19.9121 41.2402 18.6328 39.9902L16.2988 37.7246L16.582 37.3144C17.0508 36.6406 18.1348 35.5273 18.8867 34.9511C21.2695 33.1347 23.6914 32.6855 26.7773 33.4668C28.8477 33.9941 29.3066 34.0234 34.7852 34.0918C39.9023 34.1503 39.9121 34.1503 40.2246 34.375C40.7227 34.7265 40.9668 35.3515 40.918 36.1425C40.8789 36.9531 40.5957 37.4218 40 37.7148C39.6289 37.9003 39.3945 37.9101 35.9277 37.9101C33.8379 37.9101 32.1582 37.9492 32.0117 38.0078C31.6797 38.1347 31.4453 38.5156 31.4453 38.955C31.4453 39.2382 31.5137 39.375 31.748 39.5898L32.0508 39.8632H35.9375C40.2344 39.8632 40.4102 39.8437 41.2891 39.248C42.1387 38.6816 42.8906 37.3828 42.8906 36.4941C42.8906 36.2304 43.2813 35.8007 46.2402 32.8613C48.2715 30.83 49.7168 29.4628 49.9219 29.375C50.332 29.1992 51.084 29.1796 51.6016 29.3359ZM17.832 41.9531L22.7637 46.7382L22.5098 47.0312C22.373 47.1972 21.1719 48.4375 19.8438 49.7949L17.4316 52.2656L12.4609 47.539C9.73633 44.9316 7.48047 42.7734 7.47071 42.7246C7.43164 42.6171 12.7148 37.1093 12.8223 37.1484C12.8613 37.1679 15.1172 39.3261 17.832 41.9531Z" fill="#0968AD"/>
<path d="M27.832 38.0566C27.5293 38.2226 27.3242 38.7499 27.4219 39.121C27.4512 39.2577 27.6172 39.4823 27.7734 39.6191C28.418 40.1562 29.3164 39.7362 29.3164 38.8866C29.3164 38.1054 28.5449 37.6757 27.832 38.0566Z" fill="#0968AD"/>
</g>
<rect x="0.5" y="0.5" width="59" height="59" stroke="#0968AD"/>
<defs>
<clipPath id="clip0_215_55">
<rect width="50" height="50" fill="white" transform="translate(5 5)"/>
</clipPath>
</defs>
</svg>
