<svg width="60" height="60" viewBox="0 0 60 60" fill="none" xmlns="http://www.w3.org/2000/svg">
<path d="M11.4902 6.99218C10.6113 7.31445 9.89844 8.04687 9.66406 8.90625C9.60547 9.09179 9.56641 10.6348 9.56641 12.3926V15.5273L8.7168 16.0937C7.10547 17.168 5.5918 18.9844 4.87891 20.7031C4.25391 22.1973 4.06836 23.1445 4.05859 24.873C4.05859 26.1719 4.09766 26.582 4.27344 27.2949C4.6543 28.8281 5.28906 30.166 6.20703 31.3672C6.80273 32.1582 8.05273 33.3105 8.85352 33.8086L9.55664 34.248L9.58594 38.0566L9.61523 41.8652L9.87891 42.3633C10.2109 42.9883 10.8164 43.5156 11.4316 43.7207L11.9102 43.8867V48.2324V52.5781L12.1934 52.8613L12.4766 53.1445H30.1719H47.8672L48.1602 52.8516L48.4531 52.5586L48.4141 51.0645C48.3848 49.6094 48.375 49.5703 48.082 49.043C47.916 48.75 47.5937 48.3594 47.3691 48.1934C46.5977 47.5977 46.4316 47.5781 41.5 47.5781H37.0566L36.4805 45.8398C36.168 44.8926 35.8848 44.0527 35.8652 43.9941C35.8262 43.8965 37.4473 43.8672 43.7656 43.8672C52.5937 43.8672 52.2227 43.8965 53.0137 43.2129C53.2383 43.0273 53.541 42.6465 53.6875 42.3633L53.9512 41.8652V25.3613V8.85742L53.6582 8.33984C53.3457 7.76366 53.0137 7.45116 52.3984 7.11913L51.998 6.90429L31.9297 6.88476C15.2207 6.86523 11.8027 6.88476 11.4902 6.99218ZM51.8613 8.99414L52.1445 9.27734V22.8613V36.4453H34.8105H17.4668L17.4961 35.8105L17.5254 35.166L18.209 34.9023L18.8926 34.6387L29.2637 34.5898L39.6348 34.541L39.8594 34.3164L40.084 34.0918V29.9902V25.8789L39.8105 25.6445C39.5469 25.4199 39.4883 25.4102 37.9746 25.4102H36.4219V24.3848C36.4219 22.666 36.3144 22.5781 34.1758 22.5781H32.7109V21.1133C32.7109 19.4531 32.6328 19.1504 32.1152 18.9746C31.9297 18.9062 31.041 18.8672 29.9082 18.8672C27.8281 18.8672 27.4668 18.9453 27.252 19.4141C27.1738 19.5801 27.1445 20.8203 27.1445 23.457V27.2656H26.2266H25.3184L25.2598 25.2832C25.2207 23.5937 25.1816 23.1738 24.9668 22.373C24.625 21.0644 24.2051 20.1074 23.5117 19.043C22.0859 16.875 19.8496 15.2734 17.3008 14.5996C15.7383 14.1797 12.8281 14.248 11.5977 14.7168C11.4316 14.7852 11.4219 14.6191 11.4219 12.0312V9.27734L11.7051 8.99414L11.9883 8.71093H31.7832H51.5781L51.8613 8.99414ZM16.4512 16.3184C18.7949 16.7969 20.8848 18.2715 22.1543 20.3516C22.584 21.0352 23.1113 22.3926 23.2871 23.2422L23.3555 23.5644L22.4961 23.5352L21.6367 23.5059L20.5332 21.9922C19.6152 20.7324 19.3711 20.459 19.0781 20.3516C18.8145 20.2637 18.0918 20.2344 16.4609 20.2539L14.2051 20.2832L14.1758 21.1816L14.1465 22.0898H16.2363H18.3262L18.834 22.793L19.3516 23.5059L19.0195 23.5352C18.4141 23.584 18.248 23.6523 18.0625 23.9746C17.8965 24.2383 17.8672 24.4629 17.8672 25.5273V26.7773H16.0117H14.1562V27.7051V28.6328H16.0117H17.8672V30.8789V33.1152L17.2129 33.3105C15.4453 33.8379 13.7852 33.8379 12.0859 33.3008L11.4219 33.0957V30.8691V28.6328H11.8613H12.3008V27.7051V26.7773H11.8613H11.4219V24.4336V22.0898H11.8613H12.3008V21.1621V20.2344H11.8613H11.4219V18.4766V16.7285L12.0957 16.5234C13.502 16.0937 15.0254 16.0254 16.4512 16.3184ZM9.56641 24.9316V32.0605L9.30273 31.875C8.82422 31.5332 7.89648 30.5566 7.45703 29.9316C6.90039 29.1602 6.41211 28.1055 6.12891 27.0605C5.81641 25.918 5.82617 23.8769 6.13867 22.7246C6.58789 21.0742 7.65234 19.3457 8.84375 18.3301C9.19531 18.0371 9.49805 17.793 9.52734 17.793C9.54687 17.793 9.56641 21.0059 9.56641 24.9316ZM30.8555 26.7285V32.7344H29.9277H29V26.7285V20.7227H29.9277H30.8555V26.7285ZM34.5664 28.584V32.7344H33.6387H32.7109V28.584V24.4336H33.6387H34.5664V28.584ZM23.4336 25.5762C23.4336 26.0352 23.0332 27.5977 22.75 28.2715C22.1836 29.6289 21.0312 31.1523 20.0449 31.8457L19.7227 32.0605V28.7402V25.4102H21.5781C23.2773 25.4102 23.4336 25.4199 23.4336 25.5762ZM38.2773 30V32.7344H37.3496H36.4219V30V27.2656H37.3496H38.2773V30ZM27.1445 30.9277V32.7344H26.2168H25.2891V30.9277V29.1211H26.2168H27.1445V30.9277ZM23.4336 31.8555V32.7344H22.6328H21.8418L22.4277 32.1191C22.75 31.7871 23.0918 31.3965 23.1797 31.2402C23.2773 31.0937 23.375 30.9766 23.3945 30.9766C23.4141 30.9766 23.4336 31.3672 23.4336 31.8555ZM11.7539 35.1367C11.8711 35.1855 11.9102 35.3418 11.9102 35.8203C11.9102 36.4258 11.9004 36.4453 11.666 36.4453C11.4316 36.4453 11.4219 36.4258 11.4219 35.7617C11.4219 35.0879 11.4512 35.0195 11.7539 35.1367ZM15.6016 37.4023L15.5723 39.2285L14.6738 39.2578L13.7656 39.2871V37.4023V35.5176L14.6934 35.5469L15.6211 35.5762L15.6016 37.4023ZM11.8906 40.0781C11.9004 41.1523 11.8809 41.8164 11.8223 41.8164C11.7637 41.8164 11.6562 41.7187 11.5781 41.6016C11.4512 41.4258 11.4219 41.0742 11.4219 39.834V38.291L11.6465 38.3203C11.8613 38.3496 11.8613 38.3691 11.8906 40.0781ZM52.1445 39.873V41.4453L51.8613 41.7285L51.5781 42.0117H34.5273H17.4766V40.1562V38.3008H34.8105H52.1445V39.873ZM15.6211 46.2109V51.2891H14.6934H13.7656V46.2109V41.1328H14.6934H15.6211V46.2109ZM27.1055 45.6934L26.4902 47.5293L21.9883 47.5781L17.4766 47.627V45.7422V43.8672H22.5937H27.7109L27.1055 45.6934ZM34.4883 45.6738C34.8008 46.6406 35.0547 47.4609 35.0547 47.5C35.0547 47.5488 33.5605 47.5781 31.7441 47.5781H28.4238L29.0098 45.8398C29.3223 44.8926 29.6055 44.0527 29.6348 43.9844C29.6641 43.8867 30.1523 43.8672 31.8027 43.8867L33.9219 43.916L34.4883 45.6738ZM46.3437 49.7559C46.5391 49.9805 46.5781 50.1367 46.5781 50.6641V51.2891H32.0273H17.4766V50.4199C17.4766 49.8145 17.5156 49.5312 17.6035 49.502C17.6621 49.4727 24.1074 49.4531 31.9102 49.4629L46.1094 49.4824L46.3437 49.7559Z" fill="#0968AD"/>
<path d="M42.1933 10.6738C40.123 11.0742 38.4336 12.3731 37.5449 14.2285C37.0078 15.3516 36.8711 15.9473 36.8809 17.1582C36.9004 18.8965 37.5449 20.3809 38.8437 21.6699C40.0254 22.8516 41.6172 23.4961 43.3555 23.4863C45.1719 23.4863 46.5391 22.9102 47.8574 21.6016C48.5508 20.918 48.7754 20.6152 49.0976 19.9414C50.0254 17.9981 50.0351 16.0547 49.1269 14.2285C48.4433 12.8516 47.4961 11.9043 46.1387 11.25C44.9082 10.6543 43.4043 10.4297 42.1933 10.6738ZM43.6484 12.5195C43.6484 12.5781 43.4629 13.2617 43.2383 14.043C42.9648 15.0195 42.7988 15.4395 42.7109 15.4102C42.6426 15.3809 42.0566 14.9805 41.4121 14.5117C40.3184 13.7207 40.2402 13.6426 40.3867 13.4863C40.6113 13.2324 41.6074 12.7344 42.1933 12.5781C42.8183 12.4121 43.6484 12.3828 43.6484 12.5195ZM46.0996 13.3594C47.1055 14.1016 47.8183 15.3906 47.916 16.6699C47.9648 17.3145 47.8183 18.4277 47.6719 18.5156C47.6035 18.5547 44.7031 16.836 44.5176 16.6504C44.4199 16.5527 45.416 13.0078 45.543 13.0078C45.582 13.0078 45.8359 13.1641 46.0996 13.3594ZM40.9726 16.4746C41.9785 17.1973 43.668 18.3301 44.7324 18.9844L46.6758 20.1758L46.373 20.4883C45.6406 21.2402 44.0488 21.7774 42.9258 21.6406C40.5039 21.3672 38.7461 19.4824 38.7461 17.1485C38.7461 16.4942 38.9902 15.1563 39.1172 15.1563C39.1367 15.1563 39.9766 15.752 40.9726 16.4746Z" fill="#0968AD"/>
<path d="M43.8438 30.0488V30.9766H46.1387H48.4336V30.0488V29.1211H46.1387H43.8438V30.0488Z" fill="#0968AD"/>
<path d="M43.8438 33.6621V34.5898H46.1387H48.4336V33.6621V32.7344H46.1387H43.8438V33.6621Z" fill="#0968AD"/>
<rect x="0.5" y="0.5" width="59" height="59" stroke="#0968AD"/>
</svg>
