<svg width="60" height="60" viewBox="0 0 60 60" fill="none" xmlns="http://www.w3.org/2000/svg">
<path d="M22.1387 5.11724C21.7188 5.36139 21.709 5.43951 21.6992 7.91021V10.2833L21.4844 10.2051C21.3574 10.1661 20.8398 10.127 20.332 10.127C19.5215 10.1368 19.3457 10.1661 18.916 10.3907C17.3731 11.2012 16.7871 12.7833 17.3535 14.6192C17.4023 14.795 17.3535 14.834 16.9824 14.9317C16.4551 15.0782 15.8106 15.5567 15.3809 16.1133C14.8047 16.8751 14.6094 18.0372 14.9121 19.0235C14.9902 19.2872 15.0586 19.5118 15.0586 19.5215C15.0586 19.5411 14.9805 19.5508 14.8828 19.5508C14.5313 19.5508 13.6816 20.0684 13.2617 20.5372C13.0176 20.8106 12.7344 21.2696 12.627 21.5626C12.3828 22.1973 12.3633 23.2129 12.5684 23.7989C12.7441 24.2774 12.7441 24.2383 12.5977 24.2383C12.5293 24.2383 12.207 24.3653 11.8848 24.5118C10.2344 25.3028 9.56055 27.334 10.4102 28.9844C10.5859 29.336 11.7285 30.5372 14.541 33.3301C18.9356 37.7051 18.75 37.5684 20.2344 37.5684C20.918 37.5684 21.1523 37.5294 21.5527 37.3243C22.2168 37.002 22.9883 36.211 23.2129 35.6348L23.3887 35.1758L24.4727 36.2403C25.6543 37.3926 26.0449 37.6465 26.8945 37.8028C28.3594 38.0665 29.834 37.3047 30.4785 35.9571C30.6934 35.4981 30.7324 35.2833 30.7324 34.5411C30.7324 33.3497 30.5078 32.8809 29.3262 31.6407L28.4277 30.6934L28.9648 30.4395C29.6484 30.1172 30.3125 29.3848 30.5859 28.6524C30.7617 28.2032 30.791 27.9395 30.7617 27.3145C30.7031 26.1817 30.4785 25.8008 28.9941 24.2676L27.7441 22.9883L28.0273 22.92C28.418 22.8419 29.1406 22.3145 29.502 21.8555C30.1953 20.9961 30.3906 19.6876 29.9902 18.6036C29.7949 18.0762 29.5313 17.793 26.5723 14.8145L23.3691 11.5919L23.3398 8.53521L23.3106 5.46881L23.0371 5.23443C22.7441 4.98053 22.4414 4.94146 22.1387 5.11724ZM20.8691 11.7481C21.2012 11.836 21.8164 12.4024 24.7656 15.3321C26.7188 17.2852 28.3203 18.9551 28.3984 19.1309C28.7305 19.8926 28.4375 20.8204 27.7344 21.211C27.2754 21.4747 26.5527 21.504 26.1328 21.2794C25.7129 21.0547 18.9941 14.2774 18.877 13.9551C18.5352 13.0665 18.9941 12.1094 19.9121 11.7872C20.3711 11.6212 20.3906 11.6212 20.8691 11.7481ZM18.8477 16.6114C19.3066 16.8555 28.75 26.3184 28.9746 26.7676C29.1895 27.1973 29.1309 28.0469 28.8672 28.418C28.6133 28.7598 27.9004 29.1211 27.4902 29.1211C27.3047 29.1211 27.002 29.0528 26.7969 28.9747C26.377 28.7989 17.1973 19.6876 16.709 18.9649C16.4453 18.5743 16.416 18.4571 16.4453 17.959C16.5332 16.7188 17.7441 16.045 18.8477 16.6114ZM16.2988 21.211C16.6602 21.3477 28.8086 33.4669 28.9844 33.877C29.4531 34.9512 28.6914 36.1524 27.5488 36.1524C27.2949 36.1524 26.9629 36.1036 26.8066 36.045C26.4551 35.918 14.4238 23.9063 14.2285 23.4961C14.043 23.1055 14.043 22.3536 14.2188 22.0118C14.6094 21.2598 15.5078 20.918 16.2988 21.211ZM14.0332 25.9864C14.5117 26.211 21.543 33.2325 21.6895 33.6426C21.8262 33.9942 21.8262 34.5997 21.6895 34.9512C21.4356 35.6251 20.6641 36.0254 19.8731 35.9083C19.4141 35.8497 19.3457 35.7813 15.7129 32.168C13.6816 30.1465 11.9531 28.3594 11.8652 28.2032C11.6699 27.8321 11.6699 27.0899 11.8652 26.7188C12.0508 26.3575 12.2949 26.1426 12.7148 25.9571C13.1738 25.7618 13.5645 25.7715 14.0332 25.9864Z" fill="#0968AD"/>
<path d="M41.9434 5.23438L41.6699 5.46875V9.16992C41.6699 12.5 41.6895 12.9004 41.8457 13.291C41.9434 13.5254 42.5781 14.5605 43.2617 15.5859C45.6055 19.1016 46.3672 21.2109 46.5918 24.7852C46.6406 25.4883 46.7188 26.1523 46.7773 26.2598C46.9531 26.582 47.4219 26.7285 47.7832 26.5723C48.2715 26.377 48.3496 26.0449 48.2617 24.5801C48.0273 20.8691 47.0703 18.2422 44.6094 14.5801L43.3301 12.6855L43.2812 9.01367C43.252 6.99219 43.2129 5.33203 43.2031 5.32227C43.1055 5.21485 42.5684 5 42.4121 5C42.3047 5 42.0898 5.10742 41.9434 5.23438Z" fill="#0968AD"/>
<path d="M34.7363 21.7285C33.3398 22.3633 32.1973 24.9902 32.5977 26.6309C32.8027 27.4902 33.2715 28.0566 35.3223 29.9219C37.4902 31.875 40.8398 35.3223 40.8398 35.5762C40.8398 35.8594 40.1856 36.7578 39.0625 38.0078C37.8418 39.375 28.4277 47.9395 27.8809 48.1836C27.4902 48.3594 27.207 48.3691 23.4863 48.3398C19.5215 48.3105 19.502 48.3105 19.1406 48.0859C18.1543 47.4707 18.0762 46.1426 18.9648 45.3906C19.1406 45.2539 19.3652 45.1172 19.4824 45.0879C19.5996 45.0586 21.1914 45.0293 23.0176 45.0195L26.3379 44.9902L26.9238 44.7168C27.4219 44.4824 27.9785 43.9746 30.8008 41.1523C33.8281 38.1445 34.1016 37.8418 34.1016 37.5391C34.1016 37.3633 34.0625 37.1289 34.0039 37.0312C33.8672 36.7773 33.3691 36.6211 33.0469 36.748C32.9004 36.8066 31.3574 38.2715 29.6094 40.0098C26.9531 42.6465 26.3672 43.1836 26.0449 43.2715C25.5762 43.3984 17.8711 43.418 17.2168 43.291C16.748 43.1934 16.3965 42.9688 16.0938 42.5586C15.8008 42.1777 15.8008 41.1621 16.0938 40.7812C16.377 40.3906 16.7285 40.1562 17.168 40.0586C17.373 40.0098 19.1113 39.9609 21.0254 39.9609H24.502L24.6973 39.7363C24.9902 39.4141 25.0293 39.209 24.8828 38.8477C24.7949 38.623 24.6484 38.4863 24.4336 38.4082C24.209 38.3301 22.6465 38.3008 19.3262 38.3008C14.6875 38.3008 14.541 38.291 14.1895 38.0957C13.7402 37.8418 13.4277 37.3926 13.3398 36.8652C13.2813 36.5039 13.3301 36.3477 13.6328 35.7227C14.0039 34.9707 14.0137 34.8145 13.6621 34.4141C13.4082 34.1406 12.9297 34.1309 12.5879 34.3945C12.2363 34.668 11.7676 35.6641 11.6895 36.2793C11.6016 36.9629 11.8262 37.9004 12.2266 38.4766C12.6367 39.082 13.3887 39.6289 14.0527 39.8242C14.4824 39.9512 14.5703 40.0098 14.5215 40.1367C13.8379 41.7676 14.209 43.3203 15.5273 44.3262C15.7617 44.502 16.2012 44.7168 16.5039 44.8047C16.8066 44.8926 17.0703 44.9707 17.0898 44.9902C17.0996 45 17.0215 45.2148 16.9043 45.4785C16.3281 46.7773 16.8945 48.5938 18.1445 49.4141C18.9648 49.9609 19.0234 49.9707 23.75 49.9707H28.0957L28.7207 49.6387C29.1699 49.3848 30.5664 48.1738 33.8477 45.2051C38.9356 40.5762 39.5508 39.9902 40.6836 38.6914C41.6406 37.5977 42.2363 36.7383 42.4023 36.2109C42.5488 35.7617 42.4805 35.0195 42.2461 34.5703C42.0313 34.1602 38.6816 30.752 36.416 28.6523C35.459 27.7637 34.5606 26.875 34.4336 26.6699C34.1309 26.1914 34.1211 25.5273 34.4043 24.7559C34.6387 24.1406 35.0391 23.4863 35.2832 23.3301C35.4004 23.252 36.0547 23.5938 38.2129 24.873C41.4941 26.8164 43.6035 28.1152 44.2969 28.623C46.9824 30.6055 48.2715 33.1543 48.2813 36.4746C48.291 39.248 47.2168 42.0312 43.8672 47.9199C43.0371 49.3652 42.2168 50.8887 42.041 51.2891C41.7383 51.9824 41.7188 52.0801 41.7188 53.2129C41.7188 53.8672 41.7481 54.4727 41.7773 54.5605C41.8555 54.7461 42.3145 55 42.5879 55C42.6953 55 42.9004 54.8926 43.0469 54.7656C43.3106 54.5508 43.3203 54.4922 43.3789 53.3301C43.4473 51.9238 43.2813 52.3242 45.3125 48.75C49.082 42.1387 50.2246 38.8867 49.9316 35.6152C49.8047 34.2383 49.6973 33.7109 49.3359 32.6074C48.5547 30.2832 47.0117 28.4277 44.4531 26.7285C43.3008 25.9668 39.7266 23.8086 37.1875 22.334C35.9277 21.6016 35.332 21.4551 34.7363 21.7285Z" fill="#0968AD"/>
<path d="M21.9531 51.9336C21.709 52.1875 21.6992 52.2363 21.6992 53.33C21.6992 54.3457 21.7188 54.5019 21.8945 54.6875C22.168 54.9804 22.5586 55.0586 22.8613 54.8925C23.291 54.6484 23.3691 54.3652 23.3398 53.2128C23.3105 52.1875 23.3008 52.1386 23.0371 51.914C22.6758 51.6015 22.2852 51.6113 21.9531 51.9336Z" fill="#0968AD"/>
<rect x="0.5" y="0.5" width="59" height="59" stroke="#0968AD"/>
</svg>
