<svg width="60" height="61" viewBox="0 0 60 61" fill="none" xmlns="http://www.w3.org/2000/svg">
<path d="M26.7773 6.10742C20.7226 6.52734 15.4199 10.4824 13.1933 16.2344C12.3047 18.5293 11.9531 21.6836 12.3633 23.7539C12.9004 26.5566 14.0234 29.7695 15.9668 34.125C17.5 37.5527 17.5586 37.6406 18.1348 37.6406C18.4766 37.6406 18.8672 37.2305 18.8672 36.8789C18.8672 36.7227 18.623 36.0684 18.3203 35.4336C16.1035 30.7266 14.5117 26.4297 13.9844 23.7246C13.2617 19.9746 14.5605 15.5898 17.334 12.4355C19.9316 9.45703 23.916 7.66992 27.9297 7.66016C30.5566 7.66016 33.1348 8.37305 35.332 9.7207C39.5019 12.2695 42.0996 16.8398 42.1094 21.6348C42.1094 24.3789 40.7617 28.5391 37.7539 35.0723C37.1582 36.3613 37.0312 36.7227 37.0801 36.957C37.207 37.5332 37.9785 37.748 38.3691 37.3184C38.75 36.918 40.8301 32.2109 41.8848 29.3887C43.7793 24.3203 44.1211 21.5273 43.2715 18.0605C42.0215 12.9629 38.2617 8.7832 33.3203 6.99609C31.2598 6.25391 29.0527 5.95117 26.7773 6.10742Z" fill="#0968AD"/>
<path d="M26.5625 16.2148C24.5508 16.6933 22.8711 18.3828 22.334 20.4629C22.1094 21.3125 22.1777 22.8945 22.4805 23.7441C23.8867 27.748 29.0625 28.9199 32.041 25.9121C33.125 24.8183 33.6133 23.6855 33.6914 22.1133C33.7695 20.2773 33.291 19.0371 32.0117 17.7675C31.1426 16.8984 30.3906 16.459 29.3066 16.205C28.5449 16.0293 27.3144 16.0293 26.5625 16.2148ZM28.8574 17.7675C30.9766 18.2168 32.4414 20.3457 32.0801 22.455C31.4844 25.9511 27.2949 27.2304 24.8828 24.6621C22.7246 22.3476 23.9258 18.4414 26.9922 17.7675C27.793 17.5918 28.0566 17.5918 28.8574 17.7675Z" fill="#0968AD"/>
<path d="M47.5293 36.2441C45.9766 36.8008 44.9902 37.9629 44.7266 39.5352C44.5898 40.3359 44.7363 41.2344 45.0976 41.9668L45.3516 42.4551L44.1504 43.6562L42.9394 44.8672L39.8926 41.8203C36.9922 38.9297 36.8262 38.7734 36.4941 38.7832C36.2988 38.793 36.084 38.8418 36.0059 38.9102C35.9277 38.9688 35.166 40.375 34.3164 42.0156C31.8945 46.6738 28.125 53.4609 27.959 53.4609C27.793 53.4609 23.2226 45.1992 20.9766 40.8535C20.459 39.8477 19.9707 38.9785 19.8828 38.9004C19.7949 38.832 19.5801 38.7734 19.3945 38.7734C19.082 38.7734 18.8476 38.9883 16.3281 41.498L13.6035 44.2129L13.0176 43.9492C10.7226 42.9238 8.15429 44.0371 7.35351 46.4102C6.51366 48.9004 8.31054 51.5762 10.9668 51.7715C12.168 51.8691 13.1641 51.5078 14.0918 50.6484C15.4004 49.4473 15.7519 47.6016 15 45.9316L14.7363 45.3457L16.9238 43.1484C18.125 41.9473 19.1406 40.9609 19.1699 40.9609C19.209 40.9609 19.8633 42.1621 20.6348 43.6172C23.0566 48.2656 27.0801 55.4141 27.4609 55.7559C27.7148 55.9805 28.1836 55.9805 28.4375 55.7559C28.8281 55.4043 32.6953 48.5488 35.2637 43.6562C36.0254 42.2012 36.6699 41 36.6992 40.9707C36.7187 40.9414 38.0273 42.2012 39.5996 43.7637C41.1719 45.3262 42.5488 46.6543 42.6758 46.7227C42.793 46.7812 42.998 46.8008 43.1152 46.7715C43.2324 46.7324 44.0332 46 44.9023 45.1406L46.4746 43.5879L46.9336 43.832C47.5488 44.1543 48.3789 44.3203 49.1406 44.252C51.5137 44.0566 53.2226 41.8789 52.8516 39.5352C52.6367 38.207 51.7871 37.0645 50.5371 36.4492C49.9609 36.166 49.7754 36.127 48.9551 36.1074C48.2422 36.0781 47.9004 36.1172 47.5293 36.2441ZM49.8633 37.8848C50.3125 38.0996 50.8301 38.5977 51.0547 39.0273C51.2793 39.457 51.3379 40.375 51.1816 40.9316C50.9863 41.625 50.2344 42.3574 49.4922 42.5723C48.5937 42.8359 47.666 42.5918 47.0019 41.9277C45.7324 40.668 46.2305 38.4121 47.9199 37.7871C48.4277 37.6016 49.375 37.6504 49.8633 37.8848ZM12.2754 45.3457C12.8613 45.6094 13.2617 45.9902 13.5351 46.5469C14.1699 47.8262 13.5644 49.4668 12.2363 50.0137C11.7676 50.209 10.8105 50.209 10.3223 50.0039C9.8828 49.8184 9.2578 49.252 9.04296 48.8418C8.53515 47.8848 8.77929 46.5371 9.5996 45.7754C10.2441 45.1797 11.4844 44.9844 12.2754 45.3457Z" fill="#0968AD"/>
<rect x="0.5" y="0.5" width="59" height="60" stroke="#0968AD"/>
</svg>
