<svg width="60" height="60" viewBox="0 0 60 60" fill="none" xmlns="http://www.w3.org/2000/svg">
<path d="M28.2422 6.62111C26.6797 6.79689 25.9961 6.90431 25.0195 7.11915C17.0117 8.8672 10.5762 14.5703 7.88086 22.2949C7.44141 23.5547 7.02149 25.2539 6.78711 26.6992C6.55274 28.2324 6.55274 31.7481 6.79688 33.3008C7.51953 37.9102 9.32618 41.8848 12.2754 45.3125C16.0059 49.6582 21.2207 52.4512 27.0703 53.2617C28.2715 53.4277 31.7383 53.418 32.9297 53.252C38.8281 52.4414 44.0137 49.6582 47.7441 45.293C50.6738 41.8652 52.4902 37.9004 53.2031 33.3008C53.4473 31.7676 53.4473 28.2422 53.2129 26.709C52.4023 21.5625 50.1172 17.0117 46.5527 13.4473C42.9688 9.8633 38.4961 7.6172 33.3496 6.80665C32.4414 6.66017 28.9746 6.53321 28.2422 6.62111ZM33.2227 8.35939C38.2031 9.1797 42.334 11.3184 45.7227 14.8242C48.3691 17.5684 50.1856 20.8008 51.1328 24.4531C51.6895 26.5723 51.8164 27.6367 51.8164 29.9512C51.8262 32.2852 51.6797 33.4766 51.1426 35.5274C49.1504 43.1641 43.1641 49.1504 35.5176 51.1426C33.4766 51.6797 32.2852 51.8262 29.9512 51.8164C27.6367 51.8164 26.5723 51.6895 24.4531 51.1328C20.8008 50.1856 17.627 48.4082 14.8535 45.7422C11.25 42.2949 9.16993 38.1934 8.31055 32.8809C8.13477 31.8457 8.13477 28.1543 8.31055 27.1192C9.1211 22.0703 10.9863 18.2422 14.2773 14.8242C17.7441 11.2402 22.1973 8.98439 27.1191 8.33009C27.5488 8.2715 28.0566 8.20314 28.2422 8.18361C28.9746 8.09571 32.334 8.22267 33.2227 8.35939Z" fill="#0968AD"/>
<path d="M28.3887 11.3184C25.6152 11.6406 23.7207 12.1875 21.543 13.2812C17.8418 15.1465 14.9121 18.1445 13.1055 21.9141C12.2852 23.6328 11.8457 25.0195 11.4746 27.0703C11.2402 28.3691 11.2402 31.6309 11.4746 32.9297C11.8457 34.9805 12.2852 36.3672 13.1055 38.0859C14.9805 41.9922 18.0273 45.0391 21.9141 46.8848C23.6621 47.7246 25.0391 48.1543 27.0703 48.5254C28.3691 48.7598 31.6309 48.7598 32.9297 48.5254C34.9805 48.1543 36.3574 47.7148 38.0957 46.8848C42.002 45.0195 45.0098 42.002 46.8945 38.0859C50.332 30.8984 48.877 22.4023 43.2422 16.7578C39.6484 13.1738 34.8145 11.2012 29.7852 11.2598C29.1797 11.2695 28.5547 11.2988 28.3887 11.3184ZM31.8359 12.9199C35 13.2617 38.2129 14.5703 40.6445 16.5039C41.3379 17.0605 42.8613 18.5644 43.3789 19.209C47.0215 23.7988 48.125 29.8828 46.3086 35.4004C45.8984 36.6504 44.7754 38.8574 44.0234 39.9121C38.3496 47.8027 27.6074 49.5117 19.7461 43.7891C18.8867 43.1543 17.4121 41.7383 16.6699 40.8398C12.9883 36.3184 11.8652 30.1855 13.6914 24.6191C15.3711 19.502 19.502 15.3711 24.6289 13.6914C25.6934 13.3398 27.3926 12.9687 28.3887 12.8809C29.2578 12.8027 30.9375 12.8223 31.8359 12.9199Z" fill="#0968AD"/>
<path d="M29.4629 14.6191C29.2188 14.8535 29.2188 14.873 29.2188 16.7188C29.2188 18.5645 29.2188 18.584 29.4629 18.8184C29.6094 18.9746 29.8145 19.0625 30 19.0625C30.1855 19.0625 30.3906 18.9746 30.5371 18.8184C30.7812 18.584 30.7812 18.5645 30.7812 16.7188C30.7812 14.873 30.7812 14.8535 30.5371 14.6191C30.3906 14.4629 30.1855 14.375 30 14.375C29.8145 14.375 29.6094 14.4629 29.4629 14.6191Z" fill="#0968AD"/>
<path d="M32.9492 22.8614C29.3359 24.7266 26.3477 26.2989 26.2988 26.3477C26.1426 26.5137 19.4531 39.5801 19.4531 39.7168C19.4531 40.2051 20 40.6348 20.4395 40.4981C20.7617 40.3907 33.5449 33.8086 33.6719 33.6719C33.8086 33.545 40.4004 20.7422 40.498 20.4297C40.6348 19.9805 40.1855 19.4434 39.6875 19.4629C39.5996 19.4629 36.5625 20.9961 32.9492 22.8614ZM37.5293 22.8418C36.1816 25.5371 32.6074 32.4121 32.5098 32.5098C32.4121 32.6075 25.7031 36.0938 22.9395 37.4805L22.0898 37.9102L22.4707 37.1582C23.8281 34.4434 27.3926 27.5879 27.4902 27.4903C27.5781 27.4024 37.7832 22.0996 37.8906 22.0899C37.9004 22.0899 37.7441 22.4317 37.5293 22.8418Z" fill="#0968AD"/>
<path d="M29.2188 27.7832C28.7402 27.9394 27.9199 28.7793 27.7734 29.2773C27.5 30.1953 27.6953 30.9277 28.3887 31.6113C29.0723 32.3047 29.8047 32.5 30.7227 32.2265C31.2598 32.0703 32.0703 31.2598 32.2266 30.7226C32.5 29.8047 32.3047 29.0723 31.6113 28.3887C30.9277 27.6953 30.127 27.5 29.2188 27.7832ZM30.5371 29.4629C31.0254 29.9414 30.6836 30.7812 30 30.7812C29.8145 30.7812 29.6094 30.6933 29.4629 30.5371C28.9746 30.0586 29.3164 29.2187 30 29.2187C30.1855 29.2187 30.3906 29.3066 30.5371 29.4629Z" fill="#0968AD"/>
<path d="M14.6191 29.4629C14.4629 29.6094 14.375 29.8145 14.375 30C14.375 30.1855 14.4629 30.3906 14.6191 30.5371C14.8535 30.7812 14.873 30.7812 16.7188 30.7812C18.5645 30.7812 18.584 30.7812 18.8184 30.5371C18.9746 30.3906 19.0625 30.1855 19.0625 30C19.0625 29.8145 18.9746 29.6094 18.8184 29.4629C18.584 29.2188 18.5645 29.2188 16.7188 29.2188C14.873 29.2188 14.8535 29.2188 14.6191 29.4629Z" fill="#0968AD"/>
<path d="M41.1816 29.4629C41.0254 29.6094 40.9375 29.8145 40.9375 30C40.9375 30.1855 41.0254 30.3906 41.1816 30.5371C41.416 30.7812 41.4355 30.7812 43.2812 30.7812C45.127 30.7812 45.1465 30.7812 45.3809 30.5371C45.5371 30.3906 45.625 30.1855 45.625 30C45.625 29.8145 45.5371 29.6094 45.3809 29.4629C45.1465 29.2188 45.127 29.2188 43.2812 29.2188C41.4355 29.2188 41.416 29.2188 41.1816 29.4629Z" fill="#0968AD"/>
<path d="M29.4629 41.1816C29.2188 41.416 29.2188 41.4355 29.2188 43.2812C29.2188 45.127 29.2188 45.1465 29.4629 45.3809C29.6094 45.5371 29.8145 45.625 30 45.625C30.1855 45.625 30.3906 45.5371 30.5371 45.3809C30.7812 45.1465 30.7812 45.127 30.7812 43.2812C30.7812 41.4355 30.7812 41.416 30.5371 41.1816C30.3906 41.0254 30.1855 40.9375 30 40.9375C29.8145 40.9375 29.6094 41.0254 29.4629 41.1816Z" fill="#0968AD"/>
<rect x="0.5" y="0.5" width="59" height="59" stroke="#0968AD"/>
</svg>
