<svg width="60" height="60" viewBox="0 0 60 60" fill="none" xmlns="http://www.w3.org/2000/svg">
<g clip-path="url(#clip0_3_209)">
<path d="M54.9023 10.957V16.8164L52.7832 16.8359L50.6641 16.8652L49.5312 18.8867C48.916 20 48.3789 20.9277 48.3496 20.9668C48.3105 20.9961 47.7637 20.0781 47.1289 18.916L45.9668 16.8164H43.8379H41.7188V10.957V5.09764H48.3105H54.9023V10.957ZM43.1836 10.957V15.3516L45.0098 15.3711L46.8359 15.4004L47.5488 16.6699C47.9297 17.3633 48.2812 17.9394 48.3203 17.9394C48.3594 17.9394 48.7109 17.3633 49.1016 16.6699L49.8047 15.4004L51.6211 15.3711L53.4375 15.3516V10.957V6.56249H48.3105H43.1836V10.957Z" fill="#0968AD"/>
<path d="M51.7773 9.73633V10.4688H51.0449H50.3125V9.73633V9.00391H51.0449H51.7773V9.73633Z" fill="#0968AD"/>
<path d="M48.8477 9.73633V10.4688H46.8945H44.9414V9.73633V9.00391H46.8945H48.8477V9.73633Z" fill="#0968AD"/>
<path d="M51.7578 12.6367L51.7285 13.3496L49.7949 13.3789L47.8711 13.3984V12.666V11.9336H49.8242H51.7871L51.7578 12.6367Z" fill="#0968AD"/>
<path d="M46.4062 12.666V13.3984H45.6738H44.9414V12.666V11.9336H45.6738H46.4062V12.666Z" fill="#0968AD"/>
<path d="M40.3516 10.957V16.8164H36.3184L32.2949 16.8262L31.1426 18.916C30.5078 20.0684 29.9707 21.0156 29.9512 21.0156C29.9316 21.0156 29.3945 20.0684 28.7598 18.916L27.6074 16.8262L23.5742 16.8164H19.5508V10.957V5.09766H29.9512H40.3516V10.957ZM21.0156 10.957V15.3516L24.7363 15.3711L28.4668 15.4004L29.1797 16.6699C29.5703 17.3633 29.9121 17.9395 29.9512 17.9395C29.9902 17.9395 30.332 17.3633 30.7227 16.6699L31.4355 15.4004L35.166 15.3711L38.8867 15.3516V10.957V6.5625H29.9512H21.0156V10.957Z" fill="#0968AD"/>
<path d="M36.7383 9.24805V9.98047L33.3398 9.96094L29.9512 9.93164L29.9219 9.21875L29.8926 8.51562H33.3203H36.7383V9.24805Z" fill="#0968AD"/>
<path d="M28.5156 9.21875L28.4863 9.93164L27.7734 9.96094L27.0703 9.99023V9.24805V8.51562H27.8027H28.5449L28.5156 9.21875Z" fill="#0968AD"/>
<path d="M25.6055 9.24805V9.98047H24.3848H23.1641V9.24805V8.51562H24.3848H25.6055V9.24805Z" fill="#0968AD"/>
<path d="M36.7383 12.2754V13.0078L34.8047 12.9883L32.8809 12.959L32.8516 12.2461L32.8223 11.543H34.7852H36.7383V12.2754Z" fill="#0968AD"/>
<path d="M31.3672 12.2754V13.0078H28.7305H26.0938V12.2754V11.543H28.7305H31.3672V12.2754Z" fill="#0968AD"/>
<path d="M24.6289 12.2754V13.0078H23.8965H23.1641V12.2754V11.543H23.8965H24.6289V12.2754Z" fill="#0968AD"/>
<path d="M18.1836 10.957V16.8164H16.0547H13.9355L12.7734 18.916C12.1387 20.0781 11.5918 20.9961 11.5527 20.9668C11.5234 20.9277 10.9863 20 10.3711 18.8867L9.23828 16.8652L7.11914 16.8359L5 16.8164V10.957V5.09764H11.5918H18.1836V10.957ZM6.46484 10.957V15.3516L8.28125 15.3711L10.0977 15.4004L10.791 16.6504C11.1816 17.334 11.5332 17.9101 11.5723 17.9199C11.6113 17.9297 11.9727 17.3633 12.3535 16.6699L13.0664 15.4004L14.8926 15.3711L16.7188 15.3516V10.957V6.56249H11.5918H6.46484V10.957Z" fill="#0968AD"/>
<path d="M14.9609 9.73633V10.4688H14.2285H13.4961V9.73633V9.00391H14.2285H14.9609V9.73633Z" fill="#0968AD"/>
<path d="M12.0312 9.73633V10.4688H10.0781H8.125V9.73633V9.00391H10.0781H12.0312V9.73633Z" fill="#0968AD"/>
<path d="M14.9609 12.666V13.3984H13.0078H11.0547V12.666V11.9336H13.0078H14.9609V12.666Z" fill="#0968AD"/>
<path d="M9.58984 12.666V13.4082L8.87695 13.3789L8.17383 13.3496L8.14453 12.6367L8.11523 11.9336H8.85742H9.58984V12.666Z" fill="#0968AD"/>
<path d="M30.9473 24.6191C32.4707 24.8633 33.6719 25.4785 34.7852 26.582C35.625 27.4219 36.1426 28.2422 36.5234 29.3652C36.7871 30.1465 36.7871 30.1562 36.7871 33.0762C36.7871 35.6641 36.7676 36.084 36.6016 36.6895C36.1816 38.1934 35.3223 39.5508 34.2578 40.3418L33.8086 40.6836V41.6895V42.6953H34.4727H35.1465L35.2734 42.2754C35.4688 41.6211 35.7129 41.2012 36.25 40.6152C37.3145 39.4531 38.252 39.0918 40.4199 39.0137L41.9141 38.9551V38.3691V37.793L41.2793 37.168C40.5664 36.4551 39.9316 35.293 39.7656 34.4043C39.6094 33.5547 39.6484 30.0586 39.8145 29.3262C40.4102 26.8262 42.7637 25.0879 45.332 25.2441C47.6172 25.3906 49.4238 26.8262 50.1465 29.0723C50.3418 29.6973 50.3613 29.9512 50.3613 31.9531C50.3613 33.8086 50.332 34.2383 50.1855 34.7363C49.8926 35.6836 49.4336 36.4453 48.7207 37.1582L48.0664 37.8223V38.3887V38.9551L49.6094 39.0137C51.25 39.0723 51.8555 39.2188 52.7148 39.7168C53.3301 40.0781 54.1016 40.8984 54.4238 41.543C55 42.6855 55 42.6855 55 49.1211V55.0098L54.2871 54.9805L53.584 54.9512L53.5352 48.9453L53.4863 42.9395L53.2324 42.4023C52.7637 41.4062 51.8555 40.7227 50.7324 40.5469C50.4199 40.4883 49.6777 40.4492 49.082 40.4492H48.0078L47.793 40.9668C47.4805 41.7188 47.0703 42.1582 46.3379 42.5195C45.0684 43.1445 43.7109 42.8711 42.7539 41.8066C42.5195 41.543 42.2559 41.1328 42.1777 40.9082L42.041 40.498L41.0254 40.4688C39.8242 40.4395 38.8184 40.5762 38.291 40.8496C37.7148 41.1426 37.1484 41.6992 36.875 42.2168L36.6406 42.6855L37.0801 42.7344C37.3242 42.7637 37.7148 42.8223 37.959 42.8516C39.7656 43.0762 41.5234 44.4238 42.3438 46.2207C42.8613 47.3535 42.8906 47.6465 42.8906 51.4941V55.0098L42.1777 54.9805L41.4746 54.9512L41.4258 51.2891C41.3672 47.2656 41.377 47.3145 40.7129 46.2891C40.3613 45.7422 39.6191 45.0195 39.1406 44.7754C38.252 44.3164 37.8125 44.2383 35.7617 44.1895L33.75 44.1309L33.584 44.668C33.2617 45.7031 32.5098 46.5527 31.5039 47.0117C31.1035 47.1973 30.8594 47.2363 30 47.2363C29.1406 47.2363 28.8965 47.1973 28.4961 47.0117C27.4902 46.5527 26.7383 45.7031 26.416 44.668L26.25 44.1309L24.2383 44.1895C22.1875 44.2383 21.748 44.3164 20.8594 44.7754C20.3809 45.0195 19.6387 45.7422 19.2871 46.2891C18.623 47.3145 18.6328 47.2656 18.5742 51.2891L18.5254 54.9512L17.8125 54.9805L17.1094 55.0098V51.4941C17.1094 47.6465 17.1387 47.3535 17.6562 46.2207C18.4766 44.4238 20.2344 43.0762 22.041 42.8516C22.2852 42.8223 22.6758 42.7637 22.9199 42.7344L23.3594 42.6855L23.125 42.2168C22.8516 41.6992 22.2852 41.1426 21.709 40.8496C21.1816 40.5762 20.1758 40.4395 18.9746 40.4688L17.959 40.498L17.8223 40.9082C17.7441 41.1328 17.4805 41.543 17.2461 41.8066C16.2891 42.8711 14.9316 43.1445 13.6621 42.5195C12.9297 42.1582 12.5195 41.7188 12.207 40.9668L11.9922 40.4492H10.918C10.3223 40.4492 9.58008 40.4883 9.26758 40.5469C8.14453 40.7227 7.23633 41.4062 6.76758 42.4023L6.51367 42.9395L6.46484 48.9453L6.41602 54.9512L5.70312 54.9805L5 55.0098V49.1211C5 42.6855 5 42.6855 5.57617 41.543C5.89844 40.8984 6.66992 40.0781 7.28516 39.7168C8.14453 39.2188 8.75 39.0723 10.3906 39.0137L11.9336 38.9551V38.3887V37.8223L11.2695 37.1582C10.5664 36.4453 10.1074 35.6836 9.81445 34.7363C9.66797 34.2383 9.63867 33.8086 9.63867 31.9531C9.63867 29.9512 9.6582 29.6973 9.85352 29.0723C10.5762 26.8262 12.3828 25.3906 14.668 25.2441C17.2363 25.0879 19.5898 26.8262 20.1855 29.3262C20.3516 30.0586 20.3906 33.5547 20.2344 34.4043C20.0684 35.293 19.4336 36.4551 18.7207 37.168L18.0859 37.793V38.3691V38.9551L19.5801 39.0137C21.748 39.0918 22.6855 39.4531 23.75 40.6152C24.2871 41.2012 24.5312 41.6211 24.7266 42.2754L24.8535 42.6953H25.5273H26.1914V41.6895V40.6836L25.7422 40.3418C24.6777 39.5508 23.8184 38.1934 23.3984 36.6895C23.2324 36.084 23.2129 35.6641 23.2129 33.0762C23.2129 30.1562 23.2129 30.1465 23.4766 29.3652C24.0918 27.5488 25.3613 26.0742 27.0312 25.2344C28.0273 24.7266 29.834 24.4531 30.9473 24.6191ZM28.916 26.1328C26.416 26.6699 24.6289 28.9062 24.6289 31.5137V32.0996L24.9121 31.6602C25.2734 31.084 25.8105 30.6152 26.4844 30.3027L27.0215 30.0488H30H32.9785L33.5156 30.3027C34.1895 30.6152 34.7266 31.084 35.0879 31.6602L35.3711 32.0996V31.5137C35.3711 28.9355 33.584 26.6797 31.1328 26.1426C30.3516 25.9668 29.707 25.9668 28.916 26.1328ZM44.0234 26.8262C42.7051 27.168 41.6797 28.1738 41.2891 29.502C41.2012 29.7949 41.1328 30.1172 41.1328 30.2246C41.1328 30.3809 41.1816 30.3711 41.4844 30.0977C42.2168 29.4629 42.4512 29.4141 45.0195 29.4141C47.5879 29.4141 47.7539 29.4531 48.4863 30.0977L48.8477 30.4102V30.127C48.8477 29.9707 48.7793 29.6191 48.6816 29.3555C48.0176 27.3828 46.0254 26.3086 44.0234 26.8262ZM14.0332 26.8164C12.7246 27.1582 11.748 28.0762 11.3184 29.3555C11.2207 29.6191 11.1523 29.9707 11.1523 30.1367V30.4297L11.4648 30.127C12.1387 29.4727 12.4121 29.4141 14.9805 29.4141C17.5488 29.4141 17.7832 29.4629 18.5156 30.0977C18.8184 30.3711 18.8672 30.3809 18.8672 30.2246C18.8672 30.1172 18.7988 29.7949 18.7109 29.502C18.1152 27.4805 16.0254 26.2793 14.0332 26.8164ZM42.6465 31.0547C42.4414 31.1816 42.1582 31.6016 41.7285 32.3926L41.1035 33.5547L41.2109 34.0918C41.3867 34.9121 41.7871 35.625 42.4219 36.2012C43.2031 36.9336 43.8477 37.168 45.0391 37.1777C45.8887 37.1777 46.0254 37.1484 46.6309 36.8652C47.793 36.3086 48.7305 35.0684 48.8281 33.9453C48.8672 33.4961 48.8184 33.3691 48.3008 32.4023C47.4414 30.8008 47.5977 30.8789 45.0586 30.8789C43.1738 30.8789 42.9102 30.8984 42.6465 31.0547ZM12.5488 31.1133C12.3926 31.2402 12.0117 31.8262 11.6992 32.4023C11.1816 33.3691 11.1328 33.4961 11.1719 33.9453C11.2695 35.0684 12.207 36.3086 13.3691 36.8652C13.9746 37.1484 14.1113 37.1777 14.9609 37.1777C16.1523 37.168 16.7969 36.9336 17.5781 36.2012C18.2129 35.625 18.6133 34.9121 18.7891 34.0918L18.8965 33.5547L18.2715 32.3926C17.8418 31.6016 17.5586 31.1816 17.3535 31.0547C17.0898 30.8984 16.8262 30.8789 14.9414 30.8789C12.8516 30.8789 12.8223 30.8789 12.5488 31.1133ZM26.9043 31.7285C26.4062 32.002 26.3086 32.1387 25.3711 33.877C24.6387 35.2148 24.6191 35.2734 24.6875 35.7324C25.2246 39.3652 29.1309 41.4258 32.3926 39.7949C33.9355 39.0137 35.0586 37.4609 35.3125 35.7324C35.3809 35.2734 35.3613 35.2148 34.6289 33.877C33.7207 32.1875 33.584 31.9922 33.1934 31.7871C32.6465 31.5039 32.334 31.4746 29.8047 31.4941C27.4316 31.5137 27.2949 31.5234 26.9043 31.7285ZM44.9902 38.6426C44.502 38.6426 43.9355 38.6035 43.7305 38.5547L43.3496 38.4668L43.3984 39.3359C43.457 40.3027 43.6035 40.6836 44.0625 41.0645C44.7754 41.6699 45.918 41.416 46.377 40.5566C46.5625 40.2051 46.6016 39.9707 46.6016 39.2969V38.4766L46.2305 38.5547C46.0352 38.6035 45.4688 38.6426 44.9902 38.6426ZM15.0098 38.6426C14.5215 38.6426 13.9648 38.6035 13.7598 38.5547L13.3984 38.4766V39.2969C13.3984 39.9707 13.4375 40.2051 13.623 40.5566C14.082 41.416 15.2246 41.6699 15.9375 41.0645C16.3965 40.6836 16.543 40.3027 16.6016 39.3359L16.6504 38.4668L16.2695 38.5547C16.0645 38.6035 15.4883 38.6426 15.0098 38.6426ZM31.5137 41.6699C31.1914 41.748 30.5078 41.8164 30 41.8164C29.4922 41.8164 28.8086 41.748 28.4863 41.6699C27.5977 41.4551 27.6562 41.3965 27.6562 42.5684C27.666 44.2578 27.9102 44.9219 28.7598 45.498C29.1309 45.7422 29.248 45.7715 30 45.7715C30.752 45.7715 30.8691 45.7422 31.2402 45.498C32.0898 44.9219 32.334 44.2578 32.3438 42.5684C32.3438 41.3965 32.4023 41.4551 31.5137 41.6699Z" fill="#0968AD"/>
<path d="M52.0215 45.5469C52.0508 45.6152 52.0605 47.7637 52.0508 50.3125L52.0215 54.9512L51.3086 54.9805L50.6055 55.0098V50.2148V45.4297H51.2891C51.748 45.4297 51.9922 45.4688 52.0215 45.5469Z" fill="#0968AD"/>
<path d="M9.39453 50.2148V55.0098L8.68164 54.9805L7.97852 54.9512V50.2148V45.4785L8.68164 45.4492L9.39453 45.4199V50.2148Z" fill="#0968AD"/>
<path d="M38.9844 52.998V55.0098L38.2715 54.9805L37.5684 54.9512L37.5391 52.9688L37.5195 50.9961H38.252H38.9844V52.998Z" fill="#0968AD"/>
<path d="M22.4609 52.9688L22.4316 54.9512L21.7188 54.9805L21.0156 55.0098V52.998V50.9961H21.748H22.4805L22.4609 52.9688Z" fill="#0968AD"/>
</g>
<rect x="0.5" y="0.5" width="59" height="59" stroke="#0968AD"/>
<defs>
<clipPath id="clip0_3_209">
<rect width="50" height="50" fill="white" transform="matrix(-1 0 0 1 55 5)"/>
</clipPath>
</defs>
</svg>
